# xmcd
# Copyright (c) 1998 CDDB Inc.
#
# Track frame offsets:
#	150
#	11837
#	32768
#	55903
#	76608
#	96778
#	113853
#	133814
#	150967
#	193913
#	225915
#	257660
#	264684
#	290718
#	295912
#	318915
#	345120
#
# Disc length: 4762 seconds
#
# Revision: 0
# Processed by: cddbd v1.4b41PL2 Copyright (c) Steve Scherf et al.
# Submitted via: audiograbber 1.70
#
DISCID=e5129811
DTITLE=diverse Interpreten - Salsa - Hits 2001
DYEAR=1900
DGENRE=
TTITLE0=Carlos Vives - A Fuego Lento (Rosana)
TTITLE1=Celia Cruz - La Vida es un carnaval (Latin Dance)
TTITLE2=Cool Rhythms '97 - Salsa Intoxication
TTITLE3=Elvis Crespo - Tu Sonrisa
TTITLE4=Elvis Crespo - Suavemente
TTITLE5=Flamenco - Gipsy Kings
TTITLE6=Gipsy Kings - Una Rumba Por Aqui
TTITLE7=Jennifer Lopez - If You Had My Love
TTITLE8=LATIN MIX USA - SHAKIRA
TTITLE9=Latin - Dance Ultimate Salsa Mega Mix
TTITLE10=Latin - Salsa - Eddie Palmieri
TTITLE11=Marc Anthony - Hot Street Salsa Remixes
TTITLE12=Mark Anthony - Salsa Remix
TTITLE13=Merengue - Salsa e Merengue
TTITLE14=Rhythim Is Rhythim - Salsa Life
TTITLE15=Salsa - Marc Anthony and La India
TTITLE16=Solid Base - Baila Bolero
EXTD=
EXTT0=
EXTT1=
EXTT2=
EXTT3=
EXTT4=
EXTT5=
EXTT6=
EXTT7=
EXTT8=
EXTT9=
EXTT10=
EXTT11=
EXTT12=
EXTT13=
EXTT14=
EXTT15=
EXTT16=
PLAYORDER=
